<?xml version="1.0" standalone="no"?>
<!DOCTYPE svg PUBLIC "-//W3C//DTD SVG 20010904//EN"
 "http://www.w3.org/TR/2001/REC-SVG-20010904/DTD/svg10.dtd">
<svg version="1.0" xmlns="http://www.w3.org/2000/svg"
 width="500.000000pt" height="500.000000pt" viewBox="0 0 500.000000 500.000000"
 preserveAspectRatio="xMidYMid meet">
<metadata>
Created by potrace 1.11, written by Peter Selinger 2001-2013
</metadata>
<g transform="translate(0.000000,500.000000) scale(0.100000,-0.100000)"
fill="#000000" stroke="none">
<path d="M0 2500 l0 -2500 2500 0 2500 0 0 2500 0 2500 -2500 0 -2500 0 0
-2500z m3888 1842 c58 -31 114 -88 143 -148 l24 -49 3 -1292 2 -1293 -1560 0
-1560 0 0 1280 c0 1223 1 1282 19 1329 23 62 61 111 111 146 83 57 3 54 1445
52 l1330 -2 43 -23z"/>
<path d="M1250 3118 c0 -591 4 -723 19 -701 6 9 72 62 137 110 16 12 65 49
109 83 44 33 105 78 135 100 30 22 91 67 135 100 44 34 118 90 165 125 47 35
121 91 165 125 44 33 100 75 125 92 41 29 169 128 213 163 9 8 20 15 22 15 5
0 124 91 178 135 9 8 21 15 26 15 5 0 11 3 13 8 2 4 39 34 83 67 44 33 82 62
85 65 3 4 33 26 68 49 34 24 62 48 62 52 0 5 17 10 38 11 161 7 -359 16 -1000
17 l-778 1 0 -632z"/>
<path d="M3731 2980 c-1 -8 -26 -33 -56 -55 -30 -22 -100 -74 -155 -115 -54
-41 -144 -109 -199 -150 -56 -41 -146 -109 -200 -150 -55 -41 -145 -109 -200
-150 -56 -41 -146 -109 -200 -150 -55 -41 -145 -109 -200 -150 -55 -41 -129
-96 -163 -122 -35 -26 -74 -49 -88 -50 -114 -7 289 -16 828 -17 l652 -1 -1
523 c0 287 -4 540 -8 562 -5 22 -9 33 -10 25z"/>
</g>
</svg>
